<?xml version="1.0" encoding="utf-8"?>
<!-- Generator: Adobe Illustrator 25.4.1, SVG Export Plug-In . SVG Version: 6.00 Build 0)  -->
<svg version="1.1" id="图层_1" xmlns="http://www.w3.org/2000/svg" xmlns:xlink="http://www.w3.org/1999/xlink" x="0px" y="0px"
	 viewBox="0 0 125.8 77.4" style="enable-background:new 0 0 125.8 77.4;" xml:space="preserve">
<style type="text/css">
	.st0{fill-rule:evenodd;clip-rule:evenodd;fill:#00A2F1;}
	.st1{fill:#FAFEFE;}
	.st2{clip-path:url(#SVGID_00000118356668707590326700000007481190526622283144_);}
	.st3{clip-path:url(#SVGID_00000168801279373059380450000016028270830892886438_);}
	.st4{clip-path:url(#SVGID_00000168804445494213060380000001952905879732525227_);}
	.st5{fill:#F2F2F2;}
	.st6{fill:#F0F0F0;}
	.st7{clip-path:url(#SVGID_00000183945578428419896100000003754475437766400146_);}
	.st8{clip-path:url(#SVGID_00000127734226312864466470000004047187456129847698_);}
	.st9{fill:#E6E6E6;}
	.st10{fill:#3D3D3D;}
	.st11{fill:#0094CE;}
	.st12{fill:#CCCCCC;}
	.st13{fill:none;stroke:#0094CE;stroke-width:2.8346;stroke-linecap:round;stroke-linejoin:round;stroke-miterlimit:10;}
	.st14{fill:none;stroke:#000000;stroke-width:3;stroke-miterlimit:10;}
	.st15{fill:none;stroke:#0094CE;stroke-width:2;stroke-linecap:round;stroke-linejoin:round;stroke-miterlimit:10;}
	.st16{clip-path:url(#SVGID_00000153665565916210045680000014493642094459213977_);}
	.st17{clip-path:url(#SVGID_00000114791326873238100530000003651841690354965168_);}
	.st18{clip-path:url(#SVGID_00000039097159596805141450000013635905381162029503_);}
	.st19{fill:#FFFFFF;}
	.st20{fill:none;}
	.st21{clip-path:url(#SVGID_00000096024124983904600100000014420362676960637101_);}
	.st22{clip-path:url(#SVGID_00000049179440379977649510000004691239542830220463_);}
	.st23{fill:#F8F8FA;}
	.st24{opacity:0.15;fill:#B3B3B3;}
	.st25{fill:#B3B3B3;}
	.st26{fill:none;stroke:#000000;stroke-miterlimit:10;}
	.st27{stroke:#000000;stroke-miterlimit:10;}
	.st28{fill:none;stroke:#000000;stroke-width:0.25;stroke-miterlimit:10;}
	.st29{clip-path:url(#SVGID_00000088091325691732685650000007467459015069682348_);}
	.st30{clip-path:url(#SVGID_00000080190371617243346430000016166558015993879212_);}
	.st31{clip-path:url(#SVGID_00000090282584074231812060000003233915877770308747_);}
	.st32{clip-path:url(#SVGID_00000101811209205767267130000003182004556759272068_);}
	.st33{opacity:0.71;fill:#373631;}
	.st34{fill:#F5F5F5;}
	.st35{fill:none;stroke:#2A2A37;stroke-miterlimit:10;}
	.st36{fill:none;stroke:#000000;stroke-width:3.4016;stroke-miterlimit:10;}
	.st37{clip-path:url(#SVGID_00000134235819669744882700000013280604487522993541_);}
	.st38{fill:#009FF2;}
	.st39{fill:#00A0F3;}
	.st40{fill:#00A2F1;}
	.st41{fill:#00A2F0;}
	.st42{fill:none;stroke:#000000;stroke-width:3.5;stroke-miterlimit:10;}
	.st43{fill:none;stroke:#000000;stroke-width:4.252;stroke-miterlimit:10;}
	.st44{clip-path:url(#SVGID_00000170257339478290724610000003445309504483725698_);}
	.st45{fill:none;stroke:#0094CE;stroke-width:2.5;stroke-miterlimit:10;}
	.st46{fill:#333333;}
	.st47{fill:#666666;}
	.st48{stroke:#333333;stroke-miterlimit:10;}
	.st49{stroke:#333333;stroke-width:0.25;stroke-miterlimit:10;}
	.st50{fill:none;stroke:#333333;stroke-width:4.3;stroke-linejoin:round;stroke-miterlimit:2;}
	.st51{fill:#FFFFFF;stroke:#333333;stroke-width:4.3;stroke-linejoin:round;stroke-miterlimit:2;}
	.st52{fill:none;stroke:#333333;stroke-width:4.3;stroke-linecap:round;stroke-linejoin:round;stroke-miterlimit:2;}
	.st53{fill:none;stroke:#333333;stroke-width:3;stroke-linejoin:round;stroke-miterlimit:2;}
	.st54{fill:none;stroke:#333333;stroke-width:3;stroke-linecap:round;stroke-linejoin:round;stroke-miterlimit:2;}
	.st55{fill:none;stroke:#0094CE;stroke-width:2;stroke-miterlimit:10;}
	.st56{fill:none;stroke:#0094CE;stroke-miterlimit:10;}
	.st57{fill:none;stroke:#0094CE;stroke-linecap:round;stroke-linejoin:round;stroke-miterlimit:10;}
	.st58{fill:none;stroke:#0094CE;stroke-width:0.5;stroke-linecap:round;stroke-linejoin:round;stroke-miterlimit:10;}
	.st59{fill:none;stroke:#000000;stroke-width:0.5;stroke-miterlimit:10;}
	.st60{fill-rule:evenodd;clip-rule:evenodd;fill:#FFFFFF;}
</style>
<g>
	<g>
		<path class="st13" d="M76,14.4c-1.2-6-3.4-10-6-10c-3.8,0-6.8,8.6-6.8,19.3c0,2.4,0.2,4.8,0.5,6.9"/>
	</g>
	<g>
		<g>
			<path class="st11" d="M102.6,73.1H23.2c-2.9,0-5.3-2.4-5.3-5.3V14.4c0-2.9,2.4-5.3,5.3-5.3h79.4c2.9,0,5.3,2.4,5.3,5.3v53.4
				C107.9,70.7,105.5,73.1,102.6,73.1z M23.2,12.1c-1.3,0-2.3,1-2.3,2.3v53.4c0,1.3,1,2.3,2.3,2.3h79.4c1.3,0,2.3-1,2.3-2.3V14.4
				c0-1.3-1-2.3-2.3-2.3H23.2z"/>
		</g>
	</g>
	<g>
		<g>
			<g>
				<path class="st11" d="M22.9,25.4l3.8,3.9c0.2,0.2,0.2,0.5,0,0.7l-3.9,3.8c-0.3,0.3-0.8,0.1-0.8-0.3l0-7.7
					C22.1,25.3,22.6,25.1,22.9,25.4z"/>
			</g>
			<g>
				<path class="st11" d="M37.7,48.4l3.8,3.9c0.2,0.2,0.2,0.5,0,0.7l-3.9,3.8c-0.3,0.3-0.8,0.1-0.8-0.3l0-7.7
					C36.9,48.3,37.4,48.1,37.7,48.4z"/>
			</g>
			<path class="st45" d="M38,52.9c-17.6,0-31.9-5.5-31.9-12.2c0-5,7.7-9.2,18.8-11.1"/>
		</g>
		<g>
			<g>
				<path class="st11" d="M102.9,25.4l-3.8,3.9c-0.2,0.2-0.2,0.5,0,0.7l3.9,3.8c0.3,0.3,0.8,0.1,0.8-0.3l0-7.7
					C103.7,25.3,103.2,25.1,102.9,25.4z"/>
			</g>
			<g>
				<path class="st11" d="M88.1,48.4l-3.8,3.9c-0.2,0.2-0.2,0.5,0,0.7l3.9,3.8c0.3,0.3,0.8,0.1,0.8-0.3l0-7.7
					C88.9,48.3,88.4,48.1,88.1,48.4z"/>
			</g>
			<path class="st45" d="M87.8,52.9c17.6,0,31.9-5.5,31.9-12.2c0-5-7.7-9.2-18.8-11.1"/>
		</g>
	</g>
	<g>
		<path class="st11" d="M69.4,28.2l-5.6,5.6c-0.3,0.3-0.7,0.3-1,0l-5.6-5.6c-0.4-0.4-0.1-1.2,0.5-1.2l11.1,0
			C69.5,27.1,69.8,27.8,69.4,28.2z"/>
	</g>
</g>
</svg>
